#!OML:ASF H:\ManfredETheater\Project 1\Capture day 1\Session 1\subject.ASF
:FULLY-SPECIFIED
:DEGREES
176
root 10.7927 17.6329 -39.12 -163.433 1.55287 -173.254
lowerback 7.14912 -4.96843 -0.60138
upperback -2.31884 -6.02307 6.69499
thorax -5.64679 -2.70922 8.10703
lowerneck -17.4319 5.62354 3.96045
upperneck 13.0859 7.50051 -4.82354
head 7.20097 3.37517 -1.35824
rclavicle 3.98563e-014 6.91771e-014
rhumerus -51.4894 3.80302 -66.0344
rradius 87.5609
rwrist -0.119951
rhand -22.2266 0.0688672
rfingers 7.12502
rthumb 4.18998 -29.8697
lclavicle 3.98563e-014 6.91771e-014
lhumerus -30.8931 -18.8994 90.2685
lradius 102.174
lwrist 5.0418
lhand -25.7623 0.208705
lfingers 7.12502
lthumb 0.775355 30.187
rfemur -49.8538 -4.37549 12.4295
rtibia 65.4933
rfoot -0.733438 -13.5718
rtoes -26.1185
lfemur -4.01203 0.612138 -30.6242
ltibia 35.2632
lfoot 26.6332 -10.8324
ltoes 14.9177
177
root 10.8129 17.6904 -39.7069 -163.481 0.586234 -173.576
lowerback 6.60921 -5.07289 -0.863955
upperback -2.51293 -6.18858 6.76972
thorax -5.48616 -2.7823 8.30503
lowerneck -17.776 5.47551 3.85879
upperneck 13.3221 7.35491 -4.96475
head 7.33231 3.28024 -1.39537
rclavicle 1.11319e-014 -9.18385e-014
rhumerus -52.08 4.00195 -65.6172
rradius 88.7054
rwrist -0.653178
rhand -22.1156 0.0431509
rfingers 7.12502
rthumb 4.29711 -29.8932
lclavicle 1.11319e-014 -9.18385e-014
lhumerus -31.0681 -20.0924 90.1198
lradius 103.88
lwrist 3.99571
lhand -26.1259 -0.482751
lfingers 7.12502
lthumb 0.424129 29.4966
rfemur -50.0548 -4.28199 12.5531
rtibia 60.4268
rfoot -1.31554 -14.4049
rtoes -26.906
lfemur -2.37587 0.254536 -30.0985
ltibia 34.8973
lfoot 27.7793 -9.41191
ltoes 15.1873
178
root 10.8359 17.724 -40.289 -163.507 -0.412523 -173.927
lowerback 6.08669 -5.1891 -1.14434
upperback -2.73988 -6.37146 6.80621
thorax -5.36799 -2.86293 8.47579
lowerneck -18.0315 5.30941 3.75248
upperneck 13.5754 7.18141 -5.04729
head 7.45066 3.17824 -1.41878
rclavicle -7.9812e-014 8.22969e-014
rhumerus -52.6451 4.27087 -65.1917
rradius 89.7835
rwrist -1.07719
rhand -21.9159 0.107996
rfingers 7.12502
rthumb 4.49001 -29.8244
lclavicle -7.9812e-014 8.22969e-014
lhumerus -31.2857 -21.2178 89.9366
lradius 105.504
lwrist 3.23673
lhand -26.4777 -1.22597
lfingers 7.12502
lthumb 0.0843404 28.7538
rfemur -50.1885 -4.22689 12.574
rtibia 55.2802
rfoot -1.8594 -15.1681
rtoes -27.5468
lfemur -0.930729 -0.198477 -29.6081
ltibia 34.9776
lfoot 27.7427 -8.06036
ltoes 14.6595
179
root 10.8557 17.7549 -40.8722 -163.549 -1.44118 -174.277
lowerback 5.5997 -4.86272 -1.37395
upperback -3.02266 -6.66633 6.79606
thorax -5.32988 -3.29629 8.61213
lowerneck -18.2084 5.1329 3.64826
upperneck 13.8225 6.98676 -5.07759
head 7.55094 3.07241 -1.43048
rclavicle -1.39447e-013 -2.0276e-014
rhumerus -53.1699 4.59656 -64.7624
rradius 90.8096
rwrist -1.348
rhand -21.6639 0.280302
rfingers 7.12502
rthumb 4.73331 -29.6468
lclavicle -1.39447e-013 -2.0276e-014
lhumerus -31.506 -22.2495 89.7104
lradius 107.038
lwrist 2.79263
lhand -26.8088 -1.9384
lfingers 7.12502
lthumb -0.235434 28.0412
rfemur -50.1157 -4.18 12.5136
rtibia 50.0352
rfoot -2.43923 -15.8437
rtoes -28.1668
lfemur 0.373889 -0.744379 -29.1208
ltibia 35.4505
lfoot 26.8724 -6.62344
ltoes 13.4454
